<svg width="114" height="89" viewBox="0 0 114 89" fill="none" xmlns="http://www.w3.org/2000/svg">
<g style="mix-blend-mode:screen" opacity="0.3">
<path d="M113.506 59.0898C93.482 62.2059 61.6289 79.1134 52.4538 88H0V0H113.506V59.0898Z" fill="white"/>
</g>
<g style="mix-blend-mode:screen" opacity="0.3">
<path d="M113.506 44.9521C81.2485 52.6269 51.7613 72.0734 35.2577 88H0V0H113.506V44.9521Z" fill="white"/>
</g>
<g style="mix-blend-mode:screen" opacity="0.3">
<path d="M113.506 30.9298C77.6708 39.3548 38.2007 66.0144 24.1784 88H0V0H113.506V30.9298Z" fill="white"/>
</g>
<g style="mix-blend-mode:screen" opacity="0.3">
<path d="M113.506 17.3692C63.7062 28.5639 25.9672 62.3213 15.3495 88H0V0H113.506V17.3692Z" fill="white"/>
</g>
<g style="mix-blend-mode:screen">
<path d="M90.4813 0C43.6249 19.158 6.02055 71.1502 5.59738 88H0V0H90.4813Z" fill="white"/>
</g>
</svg>
