<svg width="529" height="162" viewBox="0 0 529 162" fill="none" xmlns="http://www.w3.org/2000/svg">
<path d="M79.96 98L49.24 15.32H31.24L0.4 98H18.16L24.76 78.2H55.72L62.44 98H79.96ZM40.24 32.36L50.8 63.68H29.68L40.24 32.36ZM114.558 40.52C107.598 40.52 101.238 44.6 98.1184 53.96V41.96H82.5184V98H98.2384V78.8C98.2384 62.84 103.758 55.28 111.798 55.28C113.718 55.28 116.478 55.52 119.838 57.32L123.438 42.32C120.918 41 117.558 40.52 114.558 40.52ZM167.534 48.68C163.454 43.16 155.894 40.52 149.534 40.52C135.134 40.52 122.054 51.92 122.054 69.92C122.054 87.92 135.134 99.44 149.534 99.44C155.774 99.44 163.454 96.68 167.534 91.16V92.72C167.534 107.24 161.174 112.88 151.094 112.88C145.094 112.88 139.334 109.28 136.934 104.12L123.854 109.76C128.654 120.2 139.094 126.92 151.094 126.92C170.894 126.92 183.254 115.52 183.254 91.04V41.96H167.534V48.68ZM152.534 84.8C144.614 84.8 138.014 78.08 138.014 69.92C138.014 61.64 144.614 55.16 152.534 55.16C159.854 55.16 167.054 61.28 167.054 69.92C167.054 78.44 160.214 84.8 152.534 84.8ZM249.885 69.08C249.885 51.92 236.805 40.52 220.725 40.52C204.765 40.52 190.965 51.92 190.965 70.04C190.965 87.32 203.565 99.44 220.845 99.44C230.685 99.44 240.405 95.24 245.685 88.16L236.565 78.92C233.085 82.88 227.565 85.52 221.805 85.52C214.365 85.52 209.085 81.68 207.405 75.08H249.525C249.765 72.56 249.885 70.64 249.885 69.08ZM207.405 64.88C209.085 57.32 214.605 54.08 221.085 54.08C228.165 54.08 233.565 58.28 234.045 64.88H207.405ZM289.779 40.52C284.379 40.52 275.619 43.76 272.979 51.08V41.96H257.259V98H272.979V68.6C272.979 58.4 279.939 55.4 285.579 55.4C290.979 55.4 296.259 59.36 296.259 68.12V98H311.979V67.28C312.099 50.48 304.419 40.52 289.779 40.52ZM342.72 41.96V21.56H327V41.96H316.8V54.2H327V98H342.72V54.2H354.6V41.96H342.72ZM364.362 15.32V98H372.282V65.72H396.522C413.802 65.72 420.522 53.36 420.522 40.52C420.522 27.8 413.802 15.32 396.882 15.32H364.362ZM372.282 58.28V22.76H396.762C408.162 22.76 412.602 31.64 412.602 40.52C412.602 49.52 408.042 58.28 396.162 58.28H372.282ZM470.861 73.28C470.741 86.84 461.141 92.12 452.261 92.12C443.141 92.12 436.421 85.28 436.421 74.48V41.96H428.741V74.6C428.621 90.08 437.861 99.44 451.421 99.44C458.381 99.44 467.501 96.08 470.861 88.16V98H478.541V41.96H470.861V73.28ZM518.301 40.52C509.541 40.52 503.541 46.16 500.781 55.64V41.96H492.981V98H500.781V76.88C500.781 63.08 504.861 47.96 518.181 47.96C520.221 47.96 522.861 48.32 525.741 49.52L527.181 42.2C525.021 41.12 521.421 40.52 518.301 40.52Z" fill="#D1D1D1"/>
<path d="M13.132 131.705C11.512 131.705 8.884 132.677 8.092 134.873V132.137H3.376V148.949H8.092V140.129C8.092 137.069 10.18 136.169 11.872 136.169C13.492 136.169 15.076 137.357 15.076 139.985V148.949H19.792V139.733C19.828 134.693 17.524 131.705 13.132 131.705ZM30.8811 149.381C35.6691 149.381 39.9171 145.853 39.9171 140.561C39.9171 135.233 35.6691 131.705 30.8811 131.705C26.0931 131.705 21.8451 135.233 21.8451 140.561C21.8451 145.853 26.0931 149.381 30.8811 149.381ZM30.8811 144.989C28.5411 144.989 26.6331 143.153 26.6331 140.561C26.6331 137.933 28.5411 136.097 30.8811 136.097C33.2211 136.097 35.1291 137.933 35.1291 140.561C35.1291 143.153 33.2211 144.989 30.8811 144.989ZM48.2109 132.137V126.017H43.4949V132.137H40.4349V135.809H43.4949V148.949H48.2109V135.809H51.7749V132.137H48.2109ZM63.1636 131.705C61.5436 131.705 58.8436 132.641 58.1236 134.801V122.993H53.4076V148.949H58.1236V140.129C58.1236 137.105 60.2116 136.169 61.9036 136.169C63.5236 136.169 65.1076 137.393 65.1076 140.021V148.949H69.8236V139.733C69.8596 134.693 67.5556 131.705 63.1636 131.705ZM75.2607 129.185C76.9167 129.185 78.2487 127.925 78.2487 126.341C78.2487 124.757 76.9167 123.533 75.2607 123.533C73.6407 123.533 72.2727 124.757 72.2727 126.341C72.2727 127.925 73.6407 129.185 75.2607 129.185ZM77.6367 148.949V132.137H72.9207V148.949H77.6367ZM90.6937 131.705C89.0737 131.705 86.4457 132.677 85.6537 134.873V132.137H80.9377V148.949H85.6537V140.129C85.6537 137.069 87.7417 136.169 89.4337 136.169C91.0537 136.169 92.6377 137.357 92.6377 139.985V148.949H97.3537V139.733C97.3897 134.693 95.0857 131.705 90.6937 131.705ZM113.087 134.153C111.863 132.497 109.595 131.705 107.687 131.705C103.367 131.705 99.4428 135.125 99.4428 140.525C99.4428 145.925 103.367 149.381 107.687 149.381C109.559 149.381 111.863 148.553 113.087 146.897V147.365C113.087 151.721 111.179 153.413 108.155 153.413C106.355 153.413 104.627 152.333 103.907 150.785L99.9828 152.477C101.423 155.609 104.555 157.625 108.155 157.625C114.095 157.625 117.803 154.205 117.803 146.861V132.137H113.087V134.153ZM108.587 144.989C106.211 144.989 104.231 142.973 104.231 140.525C104.231 138.041 106.211 136.097 108.587 136.097C110.783 136.097 112.943 137.933 112.943 140.525C112.943 143.081 110.891 144.989 108.587 144.989ZM123.464 149.273C125.12 149.273 126.524 148.049 126.524 146.357C126.524 144.701 125.12 143.477 123.464 143.477C121.844 143.477 120.476 144.701 120.476 146.357C120.476 148.049 121.844 149.273 123.464 149.273ZM131.516 149.273C133.172 149.273 134.576 148.049 134.576 146.357C134.576 144.701 133.172 143.477 131.516 143.477C129.896 143.477 128.528 144.701 128.528 146.357C128.528 148.049 129.896 149.273 131.516 149.273ZM139.568 149.273C141.224 149.273 142.628 148.049 142.628 146.357C142.628 144.701 141.224 143.477 139.568 143.477C137.948 143.477 136.58 144.701 136.58 146.357C136.58 148.049 137.948 149.273 139.568 149.273Z" fill="#D1D1D1"/>
<path d="M193.316 149.381C196.772 149.381 200.372 147.545 200.372 144.017C200.372 142.649 199.868 140.129 195.836 139.049L193.064 138.329C192.128 138.077 191.408 137.681 191.408 136.889C191.408 136.025 192.272 135.413 193.352 135.413C194.468 135.413 195.404 136.025 195.404 137.177H199.904C199.94 133.181 196.34 131.705 193.28 131.705C189.392 131.705 186.692 134.153 186.692 136.745C186.692 138.509 187.268 140.921 191.588 142.073L193.82 142.613C195.08 142.937 195.656 143.297 195.656 144.017C195.656 144.989 194.612 145.673 193.244 145.673C191.588 145.673 190.76 144.629 190.76 143.657H186.332C186.368 147.365 189.788 149.381 193.316 149.381ZM210.627 149.381C215.415 149.381 219.663 145.853 219.663 140.561C219.663 135.233 215.415 131.705 210.627 131.705C205.839 131.705 201.591 135.233 201.591 140.561C201.591 145.853 205.839 149.381 210.627 149.381ZM210.627 144.989C208.287 144.989 206.379 143.153 206.379 140.561C206.379 137.933 208.287 136.097 210.627 136.097C212.967 136.097 214.875 137.933 214.875 140.561C214.875 143.153 212.967 144.989 210.627 144.989ZM233.421 141.029C233.421 144.053 231.333 144.989 229.641 144.989C228.021 144.989 226.437 143.765 226.437 141.137V132.137H221.721V141.389C221.685 146.429 223.989 149.381 228.381 149.381C230.037 149.381 232.701 148.409 233.421 146.213V148.949H238.137V132.137H233.421V141.029ZM251.207 131.705C249.587 131.705 246.959 132.677 246.167 134.873V132.137H241.451V148.949H246.167V140.129C246.167 137.069 248.255 136.169 249.947 136.169C251.567 136.169 253.151 137.357 253.151 139.985V148.949H257.867V139.733C257.903 134.693 255.599 131.705 251.207 131.705ZM273.6 134.189C272.412 132.461 270.144 131.705 268.2 131.705C263.88 131.705 259.956 135.125 259.956 140.525C259.956 145.925 263.88 149.381 268.2 149.381C270.072 149.381 272.412 148.589 273.6 146.861V148.949H278.316V122.993H273.6V134.189ZM269.1 144.989C266.724 144.989 264.744 142.973 264.744 140.525C264.744 138.041 266.724 136.097 269.1 136.097C271.296 136.097 273.456 137.933 273.456 140.525C273.456 143.081 271.404 144.989 269.1 144.989ZM287.577 149.381C291.033 149.381 294.633 147.545 294.633 144.017C294.633 142.649 294.129 140.129 290.097 139.049L287.325 138.329C286.389 138.077 285.669 137.681 285.669 136.889C285.669 136.025 286.533 135.413 287.613 135.413C288.729 135.413 289.665 136.025 289.665 137.177H294.165C294.201 133.181 290.601 131.705 287.541 131.705C283.653 131.705 280.953 134.153 280.953 136.745C280.953 138.509 281.529 140.921 285.849 142.073L288.081 142.613C289.341 142.937 289.917 143.297 289.917 144.017C289.917 144.989 288.873 145.673 287.505 145.673C285.849 145.673 285.021 144.629 285.021 143.657H280.593C280.629 147.365 284.049 149.381 287.577 149.381ZM308.75 148.949V122.993H304.034V148.949H308.75ZM314.391 129.185C316.047 129.185 317.379 127.925 317.379 126.341C317.379 124.757 316.047 123.533 314.391 123.533C312.771 123.533 311.403 124.757 311.403 126.341C311.403 127.925 312.771 129.185 314.391 129.185ZM316.767 148.949V132.137H312.051V148.949H316.767ZM328.528 139.553L335.08 132.137H329.032L324.784 137.285V122.993H320.068V148.949H324.784V141.677L330.688 148.949H336.556L328.528 139.553ZM352.769 140.273C352.769 135.125 348.845 131.705 344.021 131.705C339.233 131.705 335.093 135.125 335.093 140.561C335.093 145.745 338.873 149.381 344.057 149.381C347.009 149.381 349.925 148.121 351.509 145.997L348.773 143.225C347.729 144.413 346.073 145.205 344.345 145.205C342.113 145.205 340.529 144.053 340.025 142.073H352.661C352.733 141.317 352.769 140.741 352.769 140.273ZM340.025 139.013C340.529 136.745 342.185 135.773 344.129 135.773C346.253 135.773 347.873 137.033 348.017 139.013H340.025ZM368.455 132.137V126.017H363.739V132.137H360.679V135.809H363.739V148.949H368.455V135.809H372.019V132.137H368.455ZM383.408 131.705C381.788 131.705 379.088 132.641 378.368 134.801V122.993H373.652V148.949H378.368V140.129C378.368 137.105 380.456 136.169 382.148 136.169C383.768 136.169 385.352 137.393 385.352 140.021V148.949H390.068V139.733C390.104 134.693 387.8 131.705 383.408 131.705ZM395.505 129.185C397.161 129.185 398.493 127.925 398.493 126.341C398.493 124.757 397.161 123.533 395.505 123.533C393.885 123.533 392.517 124.757 392.517 126.341C392.517 127.925 393.885 129.185 395.505 129.185ZM397.881 148.949V132.137H393.165V148.949H397.881ZM407.122 149.381C410.578 149.381 414.178 147.545 414.178 144.017C414.178 142.649 413.674 140.129 409.642 139.049L406.87 138.329C405.934 138.077 405.214 137.681 405.214 136.889C405.214 136.025 406.078 135.413 407.158 135.413C408.274 135.413 409.21 136.025 409.21 137.177H413.71C413.746 133.181 410.146 131.705 407.086 131.705C403.198 131.705 400.498 134.153 400.498 136.745C400.498 138.509 401.074 140.921 405.394 142.073L407.626 142.613C408.886 142.937 409.462 143.297 409.462 144.017C409.462 144.989 408.418 145.673 407.05 145.673C405.394 145.673 404.566 144.629 404.566 143.657H400.138C400.174 147.365 403.594 149.381 407.122 149.381Z" fill="#D1D1D1"/>
<path d="M418.56 122.614V124.669H421.29V132.949H423.645V124.669H426.375V122.614H418.56ZM437.685 122.614H435.675L432.705 129.079L429.69 122.614H427.725L426.45 132.949H428.865L429.555 127.084L431.805 131.764H433.605L435.855 127.069L436.53 132.949H438.945L437.685 122.614Z" fill="#D1D1D1"/>
</svg>
