<svg width="486" height="170" viewBox="0 0 486 170" fill="none" xmlns="http://www.w3.org/2000/svg">
<path d="M94.512 115L70.128 48.856H53.712L29.232 115H45.36L50.256 99.64H73.488L78.48 115H94.512ZM61.776 63.256L69.264 86.584H54.384L61.776 63.256ZM123.224 69.016C117.752 69.016 112.376 72.28 109.784 79.672V70.168H95.7683V115H109.976V100.12C109.976 86.872 114.584 82.168 120.152 82.168C121.592 82.168 123.8 82.264 126.584 83.896L129.944 70.36C127.64 69.208 125.336 69.016 123.224 69.016ZM164.142 75.064C160.782 70.84 154.83 69.016 150.222 69.016C139.086 69.016 128.526 78.04 128.526 92.536C128.526 107.032 139.086 116.152 150.222 116.152C154.83 116.152 160.782 114.232 164.142 110.008V111.352C164.142 121.624 159.438 125.752 152.046 125.752C147.342 125.752 143.022 122.776 141.39 119.128L129.678 123.832C133.23 132.28 141.87 138.232 152.046 138.232C168.27 138.232 178.254 128.632 178.254 109.624V70.168H164.142V75.064ZM153.294 103C147.726 103 142.926 98.2 142.926 92.536C142.926 86.872 147.726 82.168 153.294 82.168C158.67 82.168 163.566 86.776 163.566 92.536C163.566 98.296 158.766 103 153.294 103ZM231.554 91.672C231.554 78.04 220.802 69.016 207.938 69.016C195.074 69.016 183.842 78.136 183.842 92.728C183.842 106.36 193.826 116.152 208.034 116.152C215.522 116.152 223.202 113.176 227.618 108.376L220.322 99.16C217.538 101.848 213.218 103.768 208.994 103.768C203.618 103.768 199.874 101.08 198.53 96.76H231.362C231.458 94.552 231.554 92.92 231.554 91.672ZM198.434 88.408C199.874 83.032 204.002 81.016 208.226 81.016C213.314 81.016 217.25 83.992 217.442 88.408H198.434ZM263.852 69.016C259.724 69.016 252.716 71.8 250.988 77.944V70.168H236.779V115H250.988V91.672C250.988 84.184 255.788 82.168 259.628 82.168C263.18 82.168 267.404 84.856 267.404 91.768V115H281.612V90.904C281.612 77.176 275.756 69.016 263.852 69.016ZM307.349 70.168V54.136H293.141V70.168H284.981V80.92H293.141V115H307.349V80.92H316.757V70.168H307.349ZM324.533 48.856V115H330.869V89.176H350.261C364.085 89.176 369.461 79.288 369.461 69.016C369.461 58.84 364.085 48.856 350.549 48.856H324.533ZM330.869 83.224V54.808H350.453C359.573 54.808 363.125 61.912 363.125 69.016C363.125 76.216 359.477 83.224 349.973 83.224H330.869ZM409.732 95.224C409.636 106.072 401.956 110.296 394.852 110.296C387.556 110.296 382.18 104.824 382.18 96.184V70.168H376.036V96.28C375.94 108.664 383.332 116.152 394.18 116.152C399.748 116.152 407.044 113.464 409.732 107.128V115H415.876V70.168H409.732V95.224ZM447.685 69.016C440.677 69.016 435.877 73.528 433.669 81.112V70.168H427.429V115H433.669V98.104C433.669 87.064 436.933 74.968 447.589 74.968C449.221 74.968 451.333 75.256 453.637 76.216L454.789 70.36C453.061 69.496 450.181 69.016 447.685 69.016Z" fill="#4E5560"/>
</svg>
