<svg xmlns="http://www.w3.org/2000/svg" viewBox="0 0 1494.82 235.58"><defs><style>.cls-1{fill:#fff;}</style></defs><title>logo_hifiart_white</title><g id="Calque_2" data-name="Calque 2"><g id="Calque_1-2" data-name="Calque 1"><polygon class="cls-1" points="137.24 114.26 61.14 114.26 61.14 17.53 0 17.53 0 235.58 61.14 235.58 61.14 131.9 137.24 131.9 137.24 235.58 198.38 235.58 198.38 17.53 137.24 17.53 137.24 114.26"/><path class="cls-1" d="M304.89,68.58a133.11,133.11,0,0,1-33.82,10.94,132.8,132.8,0,0,1-21,2.1,2.6,2.6,0,0,0-2.56,2.64V235.58h61.14V71a2.64,2.64,0,0,0-3.8-2.4"/><polygon class="cls-1" points="440.8 23.19 440.8 235.58 501.94 235.58 501.94 131.9 591.3 131.9 591.3 114.26 501.94 114.26 501.94 40.83 603.06 40.83 603.06 23.19 501.94 23.19 440.8 23.19"/><path class="cls-1" d="M278.12,0c-16.88,0-30.57,11.2-30.57,25s13.69,25,30.57,25,30.57-11.19,30.57-25S295,0,278.12,0"/><path class="cls-1" d="M704.22,68.58A133.11,133.11,0,0,1,670.4,79.52a132.8,132.8,0,0,1-21,2.1,2.6,2.6,0,0,0-2.56,2.64V235.58H708V71a2.64,2.64,0,0,0-3.8-2.4"/><path class="cls-1" d="M677.45,0c-16.88,0-30.57,11.2-30.57,25s13.69,25,30.57,25S708,38.83,708,25,694.33,0,677.45,0"/><polygon class="cls-1" points="1422.88 23.19 1361.74 23.19 1289.81 23.19 1289.81 40.83 1361.74 40.83 1361.74 235.58 1422.88 235.58 1422.88 40.83 1494.82 40.83 1494.82 23.19 1422.88 23.19"/><path class="cls-1" d="M1254.17,58.66c-6.93-23.61-31.24-41.2-59.58-41.6H1083.87V235.19H1145V143.66l67.72,91.53h71.84l-78.37-100.37c36.77-9.45,57-46,48-76.16M1185.55,107A41.73,41.73,0,0,1,1156,119.25h-11V35.65h11A41.78,41.78,0,0,1,1185.55,107"/><path class="cls-1" d="M923.51,17.06,814.9,234.79h47.93l26.25-59.88h74l26.23,60.28h65.91L952.55,17.06ZM899.92,150.19l26.3-60,26.11,60Z"/></g></g></svg>