<svg width="48" height="50" viewBox="0 0 48 50" fill="none" xmlns="http://www.w3.org/2000/svg">
<path d="M23.904 32L18.184 16.842H15.764L10.022 32H12.398L13.806 28.172H20.12L21.528 32H23.904ZM16.974 19.592L19.394 26.192H14.532L16.974 19.592ZM33.7129 23.222C33.0089 22.078 31.5789 21.462 30.1489 21.462C27.3769 21.462 25.0669 23.574 25.0669 26.852C25.0669 30.108 27.3769 32.264 30.1709 32.264C31.5349 32.264 33.0089 31.626 33.7129 30.504V30.768C33.7129 34.024 32.3709 35.256 30.2149 35.256C29.0929 35.256 27.9049 34.618 27.3329 33.518L25.5069 34.42C26.4749 36.246 28.2789 37.258 30.2149 37.258C33.6689 37.258 35.8689 35.366 35.8689 30.592V21.726H33.7129V23.222ZM30.4129 30.24C28.6529 30.24 27.2229 28.744 27.2229 26.83C27.2229 24.894 28.6529 23.486 30.4129 23.486C31.9969 23.486 33.6909 24.762 33.6909 26.83C33.6909 28.898 32.1509 30.24 30.4129 30.24Z" fill="#D1DEFE"/>
<rect x="0.5" y="0.5" width="47" height="49" stroke="#D1DEFE"/>
</svg>
